<svg aria-hidden="true" style="position:absolute;width:0;height:0;overflow:hidden" xmlns="http://www.w3.org/2000/svg"><defs><symbol id="icon-Vector-3" viewBox="0 0 32 32"><path d="M32 3.22 28.78 0 16 12.78 3.22 0 0 3.22 12.78 16 0 28.78 3.22 32 16 19.22 28.78 32 32 28.78 19.22 16 32 3.22z"/></symbol><symbol id="icon-linkedin" viewBox="0 0 32 32"><path d="M32 32V20.26c0-5.74-1.24-10.16-7.95-10.16-3.23 0-5.39 1.77-6.27 3.45h-.1v-2.91h-6.36V32h6.63V21.42c0-2.79.52-5.48 3.97-5.48 3.4 0 3.45 3.18 3.45 5.66V32H32zM.52 10.64h6.63V32H.53V10.64zM3.84 0C1.72 0 0 1.72 0 3.84s1.72 3.88 3.84 3.88A3.88 3.88 0 0 0 7.7 3.84 3.85 3.85 0 0 0 3.84 0z"/></symbol><symbol id="icon-Logo-6" viewBox="0 0 57 32"><path d="M12.88 11.26c-1.28 0-2.32.92-2.32 2.05 0 1.14 1.04 2.06 2.32 2.06 1.28 0 2.31-.92 2.31-2.06 0-1.13-1.03-2.05-2.31-2.05zm17.1-.66c-.01-1.58-.72-3.1-1.98-4.21s-2.95-1.75-4.73-1.75c-1.78 0-3.48.63-4.74 1.75s-1.96 2.63-1.97 4.2v8.71s13.4-1.32 13.41-8.7zM5.86 22.16c0 1.1.5 2.15 1.37 2.93s2.05 1.21 3.29 1.22c1.24 0 2.42-.44 3.3-1.22s1.36-1.83 1.36-2.93V16.1s-9.32.93-9.32 6.06zm4.66 1.08c-.24 0-.48-.06-.68-.18s-.35-.29-.45-.48a1.01 1.01 0 0 1 .26-1.18c.18-.16.4-.26.63-.3s.48-.02.7.06c.23.08.42.22.56.4s.2.39.2.6a1 1 0 0 1-.36.77 1.29 1.29 0 0 1-.87.32zm9.43-.6h-.9v.94h-.47V21.3h1.48v.38h-1.01v.59h.9v.38zm2.25-.15c0 .23-.04.42-.12.59a.9.9 0 0 1-.85.53c-.19 0-.35-.05-.5-.14s-.26-.22-.35-.39a1.34 1.34 0 0 1-.12-.58v-.1c0-.23.04-.43.12-.6a.9.9 0 0 1 .85-.53c.19 0 .36.05.5.14a.89.89 0 0 1 .35.4c.08.16.12.36.12.58v.1zm-.48-.1c0-.24-.04-.42-.12-.55s-.21-.18-.37-.18a.42.42 0 0 0-.36.18.95.95 0 0 0-.13.54v.11c0 .23.04.41.12.54s.21.2.37.2a.41.41 0 0 0 .37-.19c.08-.12.12-.3.12-.54v-.11zm2 .59a.24.24 0 0 0-.1-.2 1.2 1.2 0 0 0-.33-.15 2.42 2.42 0 0 1-.39-.16c-.26-.14-.38-.33-.38-.56 0-.13.03-.24.1-.33a.69.69 0 0 1 .3-.23c.13-.05.27-.08.43-.08.17 0 .31.03.44.09a.66.66 0 0 1 .4.61h-.47c0-.1-.03-.18-.1-.24s-.16-.09-.27-.09a.43.43 0 0 0-.27.08.23.23 0 0 0-.1.19c0 .07.04.13.11.18.08.05.19.1.33.15.27.08.47.18.59.3s.18.26.18.44a.55.55 0 0 1-.22.46.98.98 0 0 1-.6.17c-.18 0-.34-.03-.48-.1-.15-.06-.26-.15-.33-.26s-.12-.24-.12-.39h.47c0 .25.15.38.45.38a.44.44 0 0 0 .27-.07.22.22 0 0 0 .09-.19zm2.5-1.3h-.7v1.9h-.47v-1.9h-.68v-.38h1.85v.38zm1.64.91h-.9v.61h1.06v.38H26.5V21.3h1.52v.38h-1.05v.54h.9v.37zm1.27.15h-.37v.84h-.47V21.3h.84c.27 0 .48.06.63.18s.22.3.22.51a.7.7 0 0 1-.1.39.69.69 0 0 1-.31.25l.5.93v.02h-.51l-.43-.84zm-.37-.38h.38c.11 0 .2-.03.27-.08a.32.32 0 0 0 .1-.25.34.34 0 0 0-.1-.26c-.06-.06-.15-.09-.28-.09h-.37v.69zm2.84.41v.8h-.47V21.3h.89c.17 0 .32.03.45.1a.7.7 0 0 1 .4.65.66.66 0 0 1-.23.53.95.95 0 0 1-.63.2h-.41zm0-.37h.42c.12 0 .22-.03.28-.1.07-.05.1-.13.1-.24 0-.11-.03-.2-.1-.27s-.16-.1-.27-.1h-.43v.7zm2.96.2h-.9v.6h1.06v.38h-1.52V21.3h1.52v.38h-1.06v.54h.9v.37zm2.18-.92h-.7v1.9h-.47v-1.9h-.68v-.38h1.85v.38zm1.64.91h-.9v.61h1.05v.38h-1.52V21.3h1.52v.38h-1.05v.54h.9v.37zm1.27.15h-.37v.84h-.47V21.3h.84c.27 0 .48.06.63.18s.21.3.21.51a.7.7 0 0 1-.1.39.69.69 0 0 1-.3.25l.49.93v.02h-.5l-.43-.84zm-.37-.38h.37c.12 0 .21-.03.28-.08a.32.32 0 0 0 .1-.25.34.34 0 0 0-.1-.26c-.06-.06-.15-.09-.28-.09h-.37v.69zm2.75.62a.24.24 0 0 0-.1-.2 1.2 1.2 0 0 0-.33-.15 2.42 2.42 0 0 1-.39-.16c-.25-.14-.38-.33-.38-.56 0-.13.03-.24.1-.33a.69.69 0 0 1 .3-.23c.13-.05.27-.08.44-.08.16 0 .3.03.43.09a.68.68 0 0 1 .3.25.65.65 0 0 1 .1.36h-.47c0-.1-.03-.18-.1-.24s-.15-.09-.27-.09a.43.43 0 0 0-.27.08.23.23 0 0 0-.1.19c0 .07.04.13.12.18.07.05.18.1.33.15.26.08.46.18.58.3s.18.26.18.44a.55.55 0 0 1-.22.46.98.98 0 0 1-.6.17c-.18 0-.34-.03-.48-.1a.77.77 0 0 1-.33-.26.68.68 0 0 1-.11-.39h.47c0 .25.15.38.45.38a.44.44 0 0 0 .26-.07.22.22 0 0 0 .1-.19z"/></symbol><symbol id="icon-antenna" viewBox="0 0 32 32"><path fill="#212121" style="fill:var(--color3, #212121)" d="m30.77 22.1-8.44-8.5.94-4.62c.24.1.5.14.75.14h.01a2.16 2.16 0 1 0-2-1.43l-4.97.6L8.97.16A.53.53 0 0 0 8.6 0a.53.53 0 0 0-.37.16l-1.51 1.5a.53.53 0 0 0 0 .75l.81.83a14.94 14.94 0 0 0 2.52 17.66.51.51 0 0 0 .15.1c-.04.18-.05.36-.05.55v6.18h-6.4a2.67 2.67 0 0 0-2.67 2.67v1.07c0 .3.24.53.53.53h24.54a.53.53 0 0 0 .53-.53V30.4A2.67 2.67 0 0 0 24 27.74h-6.4v-2.75a15.09 15.09 0 0 0 3.05.32 14.85 14.85 0 0 0 7.04-1.78l.82.82a.53.53 0 0 0 .38.16.53.53 0 0 0 .37-.15l1.51-1.5a.53.53 0 0 0 0-.76zM23.28 6.23a1.07 1.07 0 1 1 .75 1.83 1.07 1.07 0 0 1-.75-1.83zm-1.26 3.5-.6 2.95-1.17-1.18 1.78-1.76zm-.6-.9-1.92 1.92L18 9.25l3.4-.41zM24 28.8a1.6 1.6 0 0 1 1.6 1.6v.53H2.14v-.53a1.6 1.6 0 0 1 1.6-1.6H24zm-7.46-2.13v1.06H11.2v-1.06h5.34zM11.2 25.6v-4.05c0-1.3 1.2-2.35 2.67-2.35s2.67 1.05 2.67 2.35v4.05H11.2zm6.4-1.7v-2.35c0-1.89-1.67-3.42-3.73-3.42a3.8 3.8 0 0 0-3.28 1.79A13.87 13.87 0 0 1 8.31 4.03l18.6 18.71a13.82 13.82 0 0 1-9.3 1.16zm11.3-.68L7.83 2.04l.75-.75 7.94 7.98 13.12 13.2-.76.75z"/><path fill="#2196f3" style="fill:var(--color2, #2196f3)" d="M13.88 20.27a1.6 1.6 0 1 0-.01 3.2 1.6 1.6 0 1 0 0-3.2zm.37 1.97a.53.53 0 0 1-.75-.75.53.53 0 0 1 .37-.16.53.53 0 0 1 .37.92z"/></symbol><symbol id="icon-astronaut" viewBox="0 0 32 32"><path fill="#2196f3" style="fill:var(--color2, #2196f3)" d="M31.97 4.52a.53.53 0 0 0-.43-.36l-1.9-.28-.86-1.73c-.18-.36-.78-.36-.96 0l-.85 1.73-1.91.28a.54.54 0 0 0-.3.91l1.38 1.35-.32 1.9c-.04.2.05.4.21.52a.53.53 0 0 0 .56.04l1.71-.9 1.71.9a.54.54 0 0 0 .78-.56l-.33-1.9 1.38-1.35a.54.54 0 0 0 .14-.55zm-2.46 1.33a.53.53 0 0 0-.15.47l.19 1.12-1-.53a.53.53 0 0 0-.5 0l-1 .53.2-1.12a.53.53 0 0 0-.16-.47l-.81-.79 1.12-.16a.53.53 0 0 0 .4-.3l.5-1 .5 1a.54.54 0 0 0 .4.3l1.12.16-.8.8zm-3.38 14.67h-1.06v1.07h1.06v-1.07zm0 2.14h-1.06v1.06h1.06v-1.06zm1.07-1.07h-1.07v1.07h1.07v-1.07zm-2.13 0H24v1.07h1.07v-1.07zm-2.67 4.8h-1.07v1.07h1.07v-1.07zm0 2.13h-1.07v1.07h1.07v-1.07zm1.07-1.06H22.4v1.06h1.07v-1.06zm-2.14 0h-1.06v1.06h1.06v-1.06zM16 24.26h-1.07v1.06H16v-1.06zm0 2.13h-1.07v1.07H16v-1.07zm1.07-1.07H16v1.07h1.07v-1.07zm-2.14 0h-1.06v1.07h1.06v-1.07zM5.87 6.12H4.8V7.2h1.07V6.12zm0 2.14H4.8v1.06h1.07V8.26zM6.93 7.19H5.87v1.07h1.06V7.19zm-2.13 0H3.73v1.07H4.8V7.19z"/><path fill="#212121" style="fill:var(--color3, #212121)" d="M24.71 14.16a1.77 1.77 0 0 0-1.18-.7 1.78 1.78 0 0 0-1.34.35l-1.26.96-1.9 1.41-1.35-.54A6.94 6.94 0 0 0 14.83 2.4a6.96 6.96 0 0 0-6.96 6.93A6.86 6.86 0 0 0 9 13.08l-2.76-.02H6.2a.52.52 0 0 0-.16.03l-.03.02h-.02l-3.24 1.6-1.89.9a.4.4 0 0 0-.06.04 1.78 1.78 0 0 0-.6 2.3c.22.43.6.74 1.06.89a1.78 1.78 0 0 0 1.37-.13l1.4-.74 2.26-1.17h1.35L2.2 22.2.86 23.54a1.65 1.65 0 0 0 0 2.36 1.67 1.67 0 0 0 2.36 0l1.31-1.3 1.74-1.3.9.89-1.76 1.75-1.34 1.34a1.65 1.65 0 0 0 0 2.35 1.67 1.67 0 0 0 2.36 0l3.48-3.46 1.01-1 .02-.02 5.17-5.66 3.47.5a.52.52 0 0 0 .26-.04l.05-.02.06-.03 3.21-2.13.03-.03.04-.03 1.27-1.19c.67-.62.76-1.63.22-2.36zM2.14 17.77a.71.71 0 0 1-.56.05.72.72 0 0 1-.21-1.26l1.31-.63.45 1.31-.99.53zm3.5-1.83-1.55.8-.44-1.28 2.03-1-.04 1.48zm15.1-6.62a5.79 5.79 0 0 1-.6 2.56l-4.18-1.9a1.86 1.86 0 0 0-.8-1.39l1.47-4.86a5.88 5.88 0 0 1 4.1 5.6zm-11.8 0a5.89 5.89 0 0 1 6.65-5.81l-1.44 4.75h-.05a1.87 1.87 0 1 0 0 3.73c.7 0 1.3-.38 1.62-.95l3.86 1.76a5.9 5.9 0 0 1-4.74 2.39 5.89 5.89 0 0 1-5.9-5.87zm5.96.8a.8.8 0 0 1-1.6 0 .8.8 0 0 1 1.6 0zM2.46 25.15a.6.6 0 0 1-.85 0 .6.6 0 0 1 0-.85l.96-.95.85.84-.96.96zm3.22 3.73a.6.6 0 0 1-.86 0 .6.6 0 0 1 0-.84l.97-.96.85.85-.96.95zm3.48-3.47-1.77 1.76-.85-.85 1.76-1.75c.05-.04.07-.09.1-.14l.02-.04c.02-.04.02-.08.03-.13l.01-.07-.02-.1c0-.04 0-.07-.02-.1a.55.55 0 0 0-.09-.14l-.02-.04-1.61-1.6-.06-.04a.5.5 0 0 0-.09-.05.52.52 0 0 0-.09-.04.5.5 0 0 0-.1-.02.5.5 0 0 0-.1 0 .53.53 0 0 0-.1.03.48.48 0 0 0-.1.04l-.06.03-1.77 1.33-.9-.9 2.4-2.39 4.36 4.3-.93.91zm6.82-7.02h-.05a.56.56 0 0 0-.3.08.5.5 0 0 0-.08.06l-.04.03-4.7 5.15-4.33-4.26 2.84-2.82a.53.53 0 0 0-.38-.9H6.72l.03-1.6 3.1.02a6.95 6.95 0 0 0 4.98 2.1c.44 0 .87-.04 1.28-.12.04.03.08.07.13.09l2.41.96.33 1.64-3-.43zm4.04.18-.31-1.56 1.44-1.08.95 1.26-2.08 1.38zm3.75-2.83-.83.79-.94-1.24.84-.64a.73.73 0 0 1 .54-.14.72.72 0 0 1 .48.28.71.71 0 0 1-.09.95z"/><path fill="#212121" style="fill:var(--color3, #212121)" d="m13.6 18.54-2.14-2.13a.53.53 0 0 0-.75 0l-2.15 2.13a.54.54 0 0 0 0 .76l2.15 2.13a.54.54 0 0 0 .75 0l2.14-2.13a.54.54 0 0 0 0-.76zm-2.52 1.76L9.7 18.92l1.38-1.38 1.39 1.38-1.39 1.38zm6.08-15.23-.25 1.04c.07.01 1.73.45 1.73 2.15h1.07c0-2.02-1.66-2.97-2.55-3.19zm2.55 4.25h-1.07v1.07h1.07V9.32z"/></symbol><symbol id="icon-clock" viewBox="0 0 32 32"><path fill="#212121" style="fill:var(--color3, #212121)" d="M31.3 15.3a15.3 15.3 0 1 0-30.61 0 15.3 15.3 0 0 0 10.65 14.58.66.66 0 0 0 .53-.06.64.64 0 0 0 .28-.36L16 17.21a1.91 1.91 0 1 0-.84-3.63l-5.1-5.1a.64.64 0 0 0-.9.9l5.1 5.1a1.88 1.88 0 0 0 .54 2.31l-3.69 11.67a14.04 14.04 0 1 1 18.03-8.32 14.04 14.04 0 0 1-7.46 7.97l-.4-1.87a.64.64 0 0 0-1.04-.34l-3.84 3.42a.64.64 0 0 0 .23 1.09l4.9 1.56a.64.64 0 0 0 .82-.74l-.4-1.84A15.26 15.26 0 0 0 31.3 15.3zM16 14.66a.64.64 0 1 1 0 1.28.64.64 0 0 1 0-1.28zm2.1 14.87 2.18-1.95.6 2.84-2.79-.9z"/><path fill="#2196f3" style="fill:var(--color2, #2196f3)" d="M15.35 3.19v1.27a.64.64 0 1 0 1.28 0V3.19a.64.64 0 0 0-1.28 0zM3.88 14.66a.64.64 0 0 0 0 1.28h1.27a.64.64 0 1 0 0-1.28H3.88zm24.23 1.28a.64.64 0 1 0 0-1.28h-1.28a.64.64 0 0 0 0 1.28h1.28z"/></symbol><symbol id="icon-diagram" viewBox="0 0 32 32"><path fill="#2196f3" style="fill:var(--color2, #2196f3)" d="M14.93 14.96h1.06v4.8h-1.06v-4.8zm4.26 2.14h1.07v2.66h-1.07V17.1zm-8.53 1.6h1.07v1.06h-1.07V18.7zm-3.2-.54h1.07v1.6H7.46v-1.6z"/><path fill="#212121" style="fill:var(--color3, #212121)" d="M1.6 28.3h25.59a1.6 1.6 0 0 0 1.6-1.6v-2.14a1.6 1.6 0 0 0-1.6-1.6h-.54V9.66l3.03-2.86a1.6 1.6 0 1 0-.74-.76L26.65 8.2V6.97a1.6 1.6 0 0 0-1.6-1.6H3.73a1.6 1.6 0 0 0-1.6 1.6v16H1.6a1.6 1.6 0 0 0-1.6 1.6v2.12a1.6 1.6 0 0 0 1.6 1.6zM30.38 4.83a.53.53 0 1 1 0 1.06.53.53 0 0 1 0-1.06zM3.2 6.97c0-.3.24-.53.53-.53h21.32c.3 0 .54.23.54.53V9.2l-1.07 1.01V8.03a.53.53 0 0 0-.53-.53H4.79a.53.53 0 0 0-.53.53v13.33c0 .3.24.53.54.53h19.19a.53.53 0 0 0 .53-.53V11.7l1.07-1.01v12.28H3.19v-16zM8 13.9a1.6 1.6 0 1 0 1.1 2.75l1.86.93a.53.53 0 0 0 .63-.12l3.94-4.44 3.87 2.9a.53.53 0 0 0 .69-.03l3.36-3.2v8.14H5.33V8.57h18.12v2.66l-3.77 3.57-3.9-2.93a.53.53 0 0 0-.72.08l-4 4.49-1.49-.75c.02-.06.02-.13.02-.19A1.6 1.6 0 0 0 8 13.9zm.53 1.6a.53.53 0 1 1-1.07 0 .53.53 0 0 1 1.07 0zm3.2 8.53h5.33v.53a.53.53 0 0 1-.53.53h-4.27a.53.53 0 0 1-.53-.53v-.53zm-10.66.53c0-.3.24-.53.53-.53h9.06v.53a1.6 1.6 0 0 0 1.6 1.6h4.26a1.6 1.6 0 0 0 1.6-1.6v-.53h9.06c.3 0 .54.24.54.53v2.13a.53.53 0 0 1-.53.54H1.59a.53.53 0 0 1-.53-.54v-2.13z"/></symbol><symbol id="icon-envelope" viewBox="0 0 43 32"><path d="M38.67 0H4a4 4 0 0 0-4 4v24a4 4 0 0 0 4 4h34.67a4 4 0 0 0 4-4V4a4 4 0 0 0-4-4zm0 2.67c.18 0 .35.03.5.1L21.34 18.24 3.5 2.77a1.32 1.32 0 0 1 .51-.1h34.67zm0 26.66H4A1.33 1.33 0 0 1 2.67 28V5.59L20.46 21a1.33 1.33 0 0 0 1.75 0L40 5.59V28c0 .74-.6 1.33-1.34 1.33z"/></symbol><symbol id="icon-facebook" viewBox="0 0 32 32"><path d="M21.33 5.31h2.92V.23C23.75.15 22.01 0 19.99 0c-4.2 0-7.1 2.65-7.1 7.52V12H8.26v5.69h4.65V32h5.7V17.69h4.46l.7-5.69H18.6V8.08c0-1.64.45-2.77 2.74-2.77z"/></symbol><symbol id="icon-instagram" viewBox="0 0 32 32"><path d="M31.97 9.4a11.7 11.7 0 0 0-.74-3.87 7.8 7.8 0 0 0-1.86-2.84A7.87 7.87 0 0 0 26.54.84C25.52.45 24.36.18 22.66.1 20.95.02 20.4 0 16.06 0s-4.89.02-6.6.1C7.76.16 6.6.43 5.58.83a7.8 7.8 0 0 0-2.84 1.85A7.87 7.87 0 0 0 .9 5.52C.5 6.54.23 7.7.16 9.4c-.08 1.71-.1 2.26-.1 6.6s.02 4.9.09 6.6c.08 1.7.35 2.87.74 3.88a7.9 7.9 0 0 0 1.85 2.84 7.87 7.87 0 0 0 2.84 1.84c1.02.4 2.18.67 3.88.75 1.7.07 2.25.09 6.6.09s4.88-.02 6.59-.1a11.7 11.7 0 0 0 3.88-.74 8.18 8.18 0 0 0 4.68-4.68c.4-1.02.67-2.18.75-3.88.07-1.7.09-2.25.09-6.6s0-4.89-.08-6.6zm-2.88 13.07a8.76 8.76 0 0 1-.55 2.97 5.31 5.31 0 0 1-3.04 3.04c-.56.22-1.41.48-2.97.55-1.69.07-2.2.1-6.46.1s-4.79-.02-6.47-.1a8.76 8.76 0 0 1-2.97-.55 4.93 4.93 0 0 1-1.84-1.2 4.97 4.97 0 0 1-1.19-1.83 8.81 8.81 0 0 1-.55-2.97c-.07-1.69-.1-2.2-.1-6.47s.03-4.78.1-6.46c.07-1.56.33-2.4.55-2.97a4.87 4.87 0 0 1 1.2-1.84 4.97 4.97 0 0 1 1.84-1.19A8.81 8.81 0 0 1 9.6 3c1.69-.07 2.2-.1 6.46-.1 4.28 0 4.78.03 6.47.1 1.56.07 2.4.33 2.97.55a4.91 4.91 0 0 1 1.83 1.2 4.97 4.97 0 0 1 1.2 1.83c.22.56.48 1.41.55 2.97.07 1.69.1 2.2.1 6.46s-.03 4.77-.1 6.46z"/><path d="M16.06 7.78a8.22 8.22 0 1 0 0 16.45 8.22 8.22 0 0 0 0-16.45zm0 13.55a5.33 5.33 0 0 1 0-10.66 5.33 5.33 0 0 1 0 10.67zM26.52 7.47a1.92 1.92 0 1 1-3.83 0 1.92 1.92 0 0 1 3.83 0z"/></symbol><symbol id="icon-Logo-2" viewBox="0 0 57 32"><path d="M26.73 3.17c.12 0 .25 0 .38.02h.04c.64.04 1.27.14 1.9.28V1.96a11.38 11.38 0 0 0-1.96-.31 15.84 15.84 0 0 0-.79-.04h-.22a15.9 15.9 0 0 0-3.92.5 15.87 15.87 0 0 0-4.15 1.7v15.14a16.86 16.86 0 0 1 3.96-1.55 17.27 17.27 0 0 1 3.32-.5h.04c.2-.02.38-.02.57-.02v-1.55a18.28 18.28 0 0 0-4.31.57c-.53.14-1.03.28-1.5.45l-.54.18V4.7l.23-.11a15.08 15.08 0 0 1 5.6-1.43.4.4 0 0 1 .06 0l.64-.02h.24l.34.01h.07zm2.69 1.56c.33.02.68.03 1.04.03a16.75 16.75 0 0 0 4.11-.52 16.96 16.96 0 0 0 3.96-1.55v14.88a15.88 15.88 0 0 1-4.15 1.69 15.95 15.95 0 0 1-3.92.5c-1 0-2-.11-2.96-.35V4.44a11.44 11.44 0 0 0 1.92.28zm7.56.11-.53.18c-.5.17-1 .32-1.5.45a18.23 18.23 0 0 1-4.49.58c-.35 0-.67-.01-.99-.03l-.43-.03v12.15l.37.03c.35.03.7.04 1.06.04a14.36 14.36 0 0 0 3.53-.45c.95-.24 1.87-.57 2.76-1l.23-.1V4.84zM19.06 24.11a.79.79 0 0 0-.6-.24.9.9 0 0 0-.35.07.78.78 0 0 0-.44.44.9.9 0 0 0-.06.34v2.02a.94.94 0 0 0 .08.42.72.72 0 0 0 .48.41c.1.03.2.04.3.04a.85.85 0 0 0 .84-.85v-.22h-.53v.18a.46.46 0 0 1-.03.18.32.32 0 0 1-.08.11.38.38 0 0 1-.22.08.27.27 0 0 1-.25-.11.48.48 0 0 1-.07-.27v-1.89a.64.64 0 0 1 .06-.3.3.3 0 0 1 .26-.12.28.28 0 0 1 .24.11c.06.08.09.17.09.27v.18h.52v-.2a.95.95 0 0 0-.24-.65zm3.14-.02a.92.92 0 0 0-1.2 0 .82.82 0 0 0-.2.28.96.96 0 0 0-.08.4v1.94a.93.93 0 0 0 .08.4.8.8 0 0 0 .2.26.84.84 0 0 0 .28.17.9.9 0 0 0 .92-.17.85.85 0 0 0 .2-.27.93.93 0 0 0 .08-.4v-1.93a.94.94 0 0 0-.08-.4.87.87 0 0 0-.2-.28zm-.24 2.62a.35.35 0 0 1-.11.28.39.39 0 0 1-.5 0 .35.35 0 0 1-.1-.28v-1.95a.35.35 0 0 1 .1-.28.39.39 0 0 1 .5 0 .35.35 0 0 1 .1.28v1.95zm4.37.86V23.9h-.51l-.67 1.94-.68-1.94h-.5v3.67h.52v-2.23h.01l.51 1.58h.27l.51-1.58h.01v2.23h.53zm2.98-3.41a.73.73 0 0 0-.3-.2 1.17 1.17 0 0 0-.38-.06h-.78v3.67h.53v-1.43h.27a.96.96 0 0 0 .47-.1.76.76 0 0 0 .29-.28.88.88 0 0 0 .12-.32c.02-.14.03-.28.02-.42a2.1 2.1 0 0 0-.05-.53.79.79 0 0 0-.19-.33zm-.27 1.12a.45.45 0 0 1-.05.19.3.3 0 0 1-.13.13.54.54 0 0 1-.25.04h-.24V24.4h.27a.5.5 0 0 1 .24.05.3.3 0 0 1 .12.14.54.54 0 0 1 .05.2v.5zm2.75-1.38h-.43l-.8 3.67h.52l.15-.79h.71l.16.8h.52l-.83-3.68zm-.48 2.38.26-1.33.26 1.33h-.52zm3.86-.17-.8-2.21h-.5v3.67h.52v-2.2h.01l.8 2.2h.5V23.9h-.53v2.21zm3.2-2.21-.42 1.46h-.01l-.42-1.46h-.56l.72 2.12v1.55h.53v-1.55l.72-2.12h-.56zM17.6 28.6h.25v.7h.17v-.7h.25v-.14h-.67v.14zm2.12-.14-.33.85h.18l.07-.2h.34l.07.2h.2l-.35-.85h-.18zm-.03.51.12-.31.12.31h-.24zm2.13.02h.2v.11a.33.33 0 0 1-.2.08c-.04 0-.08 0-.1-.02l-.09-.07a.35.35 0 0 1-.06-.22c0-.19.08-.28.24-.28.05 0 .1 0 .13.03s.06.06.07.1l.17-.03c-.04-.17-.16-.25-.37-.25a.43.43 0 0 0-.3.1.41.41 0 0 0-.12.34.47.47 0 0 0 .11.32.4.4 0 0 0 .33.12.51.51 0 0 0 .36-.13v-.34h-.37V29zm2.14-.54h-.17v.86h.6v-.15h-.43v-.7zm1.8 0h-.16v.86h.17v-.85zm1.78.57-.35-.57h-.17v.86h.16v-.56l.35.56h.17v-.85h-.16v.57zm1.6-.09h.42v-.14h-.42v-.19h.46v-.14h-.63v.85h.65v-.15h-.48v-.23zm3.88-.14h-.34v-.33h-.17v.85h.17v-.37h.34v.37h.17v-.85h-.17v.33zm1.6.14h.44v-.14h-.43v-.19h.46v-.14h-.63v.85h.64v-.15h-.47v-.23zm2.2 0c.14-.02.22-.1.22-.23a.2.2 0 0 0-.09-.2.48.48 0 0 0-.25-.04h-.36v.85h.17v-.36h.03a.23.23 0 0 1 .11.02.18.18 0 0 1 .06.06l.19.28h.2l-.1-.17a.6.6 0 0 0-.19-.2zm-.18-.11h-.13v-.22h.14a.45.45 0 0 1 .17.02l.03.04a.12.12 0 0 1 0 .1.11.11 0 0 1-.04.04.49.49 0 0 1-.17.02zm1.82.11h.42v-.14h-.42v-.19h.46v-.14h-.63v.85h.64v-.15h-.47v-.23z"/></symbol><symbol id="icon-Logo-3" viewBox="0 0 57 32"><path d="M19.42 26.19h.02l.02.01.12.12a.95.95 0 0 1-.33.2 1.3 1.3 0 0 1-.46.08 1.21 1.21 0 0 1-.44-.07.94.94 0 0 1-.33-.2.88.88 0 0 1-.21-.3 1.02 1.02 0 0 1-.07-.4.91.91 0 0 1 .3-.7 1.06 1.06 0 0 1 .35-.2 1.39 1.39 0 0 1 .87-.02c.11.05.22.1.3.18l-.09.12a.09.09 0 0 1-.02.02.07.07 0 0 1-.04.01.09.09 0 0 1-.04-.01L19.3 25l-.07-.04a.82.82 0 0 0-.23-.07 1.11 1.11 0 0 0-.17-.02.95.95 0 0 0-.32.06.68.68 0 0 0-.42.38.81.81 0 0 0-.06.32.8.8 0 0 0 .06.31.68.68 0 0 0 .4.39.87.87 0 0 0 .3.05l.18-.01a.69.69 0 0 0 .38-.17.09.09 0 0 1 .06-.02zm3.36-.56a.97.97 0 0 1-.08.4c-.05.1-.12.21-.22.3s-.22.15-.35.2a1.42 1.42 0 0 1-.88 0 1.03 1.03 0 0 1-.34-.2.9.9 0 0 1-.22-.31 1.02 1.02 0 0 1 0-.79.94.94 0 0 1 .22-.3c.1-.1.21-.16.34-.2.28-.1.6-.1.88 0 .13.04.25.11.35.2a.91.91 0 0 1 .3.7zm-.31 0a.84.84 0 0 0-.06-.32.65.65 0 0 0-.4-.38 1.02 1.02 0 0 0-.64 0 .68.68 0 0 0-.25.15.63.63 0 0 0-.15.23.93.93 0 0 0 0 .64.64.64 0 0 0 .4.38c.2.07.43.07.64 0a.7.7 0 0 0 .25-.15.66.66 0 0 0 .15-.23.82.82 0 0 0 .06-.32zm2.6.33.03.07.03-.07a.68.68 0 0 1 .04-.07l.74-1.17.04-.04a.2.2 0 0 1 .06 0h.22v1.9h-.26v-1.46a.73.73 0 0 1 0-.07l-.74 1.2-.05.04a.14.14 0 0 1-.06.01h-.04L25 26.3a.1.1 0 0 1-.04-.05l-.77-1.2v1.54h-.25v-1.9h.22a.2.2 0 0 1 .06 0 .09.09 0 0 1 .04.04l.76 1.17a.42.42 0 0 1 .04.07zm2.8-.1v.72h-.3v-1.9h.65c.12 0 .25 0 .36.04a.72.72 0 0 1 .26.12.5.5 0 0 1 .14.18.58.58 0 0 1 .05.25.54.54 0 0 1-.2.43.75.75 0 0 1-.26.13 1.25 1.25 0 0 1-.35.04h-.36zm0-.2h.35a.8.8 0 0 0 .22-.03.52.52 0 0 0 .16-.08.36.36 0 0 0 .14-.29c0-.05 0-.1-.03-.15s-.06-.1-.1-.13a.62.62 0 0 0-.4-.1h-.35v.78zm3.9.92h-.23a.1.1 0 0 1-.06-.01.12.12 0 0 1-.04-.05l-.2-.46h-1l-.2.46a.1.1 0 0 1-.1.06h-.23l.88-1.9h.3l.88 1.9zm-1.44-.7h.82l-.34-.78a1.28 1.28 0 0 1-.07-.18l-.03.1a.98.98 0 0 1-.03.08l-.35.77zm2.7-1.2.04.04 1.28 1.43v-1.48h.25v1.91h-.14a.14.14 0 0 1-.06 0 .17.17 0 0 1-.05-.04l-1.27-1.44a.73.73 0 0 1 0 .06v1.42h-.26v-1.9h.16a.15.15 0 0 1 .05 0zm3.72 1.14v.76h-.3v-.76l-.8-1.15h.26a.11.11 0 0 1 .07.02.16.16 0 0 1 .04.04l.5.74a.72.72 0 0 1 .09.17l.03-.08a.74.74 0 0 1 .05-.09l.5-.74a.18.18 0 0 1 .04-.04.1.1 0 0 1 .06-.02h.26l-.8 1.15zm-11.83-4.35.39.04c1.96-.77 3.62-2.02 4.77-3.6s1.74-3.4 1.7-5.28l-2.17-1.87c.44 1.98.24 4.04-.6 5.93s-2.24 3.55-4.09 4.78z"/><path d="m24.15 21.38.06.01c1.97-1.22 3.48-2.94 4.32-4.92s.98-4.13.4-6.18l-3.08-2.67c1.25 2.2 1.75 4.66 1.45 7.1s-1.4 4.74-3.15 6.66zm10.45-6.54a9.62 9.62 0 0 1-3.63 5.28c-.53.4-1.1.76-1.72 1.07 1.49-.38 2.86-1.05 4-1.97s2.03-2.04 2.6-3.3l-1.25-1.08z"/><path d="m34.1 14.54-1.77-1.55c-.04 1.77-.61 3.49-1.67 4.99s-2.56 2.73-4.35 3.56c.4 0 .8-.02 1.2-.06 1.67-.6 3.15-1.54 4.3-2.75s1.94-2.65 2.3-4.19zm-9.7-8.05L22.3 4.64c-1.9.64-3.53 1.76-4.68 3.21a8 8 0 0 0-1.78 4.95c0 1.95.76 3.84 2.15 5.38s3.32 2.63 5.5 3.1c1.94-2.06 3.08-4.6 3.25-7.26s-.65-5.3-2.32-7.53zM39 14.26c0-2.32-1.06-4.54-2.95-6.18s-4.44-2.56-7.1-2.56a11.3 11.3 0 0 0-3.6.58l12.99 11.28a7.65 7.65 0 0 0 .67-3.13z"/></symbol><symbol id="icon-Logo-4" viewBox="0 0 57 32"><path d="M14.27 23.86c.13.15.2.33.2.52 0 .12-.02.25-.07.36s-.14.22-.24.3a1.4 1.4 0 0 1-.88.24h-1.55v-3.3h1.52c.3-.02.6.06.84.22a.7.7 0 0 1 .3.62.72.72 0 0 1-.18.5.84.84 0 0 1-.46.26.9.9 0 0 1 .52.28zm-1.82-.5h.65a.65.65 0 0 0 .41-.11c.05-.04.1-.09.11-.15s.04-.11.03-.17c0-.06 0-.12-.03-.18s-.06-.1-.1-.14a.67.67 0 0 0-.43-.11h-.64v.86zm1.13 1.27c.05-.04.1-.1.12-.15s.04-.12.03-.19c0-.06 0-.12-.03-.18s-.07-.11-.12-.16a.71.71 0 0 0-.44-.12h-.68v.91h.68a.73.73 0 0 0 .44-.11zm3.8.65-.85-1.3h-.32v1.3h-.73v-3.3h1.38c.34-.03.69.07.95.28.2.18.31.41.33.66s-.06.5-.22.7c-.17.18-.4.3-.66.34l.9 1.32h-.79zm-1.17-1.74h.6c.4 0 .61-.17.61-.5a.46.46 0 0 0-.15-.37.69.69 0 0 0-.47-.14h-.6l.01 1zm5.13 1.07h-1.45l-.25.67h-.76L20.2 22h.83l1.32 3.27h-.76l-.25-.67zm-.2-.5-.52-1.39-.53 1.4h1.05zm5.16 1.17h-.72l-1.61-2.25v2.25h-.72v-3.3h.72l1.61 2.25v-2.25h.73v3.3zm4.12-.8a1.5 1.5 0 0 1-.66.59 2.28 2.28 0 0 1-1 .2h-1.3v-3.3h1.3c.34 0 .69.07 1 .2.28.14.5.34.66.58a1.78 1.78 0 0 1 0 1.74zm-.83-.07c.2-.22.32-.5.32-.79s-.11-.57-.32-.79a1.33 1.33 0 0 0-.9-.28h-.5v2.14h.5c.33.02.65-.08.9-.28zM21.8 3.6s9.3 3.21 9.1 7.87v7.87s-9.3-3.22-9.1-7.87V3.6zm17.39 13.9a13.5 13.5 0 0 1 5.9-2v-2.46a11.95 11.95 0 0 0-5.9 4.45z"/><path d="M38.12 18.25a12.32 12.32 0 0 1 6.97-5.72v-7.1s-13.25 4.58-12.97 11.2v11.21s.6-.2 1.52-.59c0-.36 0-.72.04-1.08a11.35 11.35 0 0 1 4.44-7.93z"/><path d="M36.86 22.4c.07-.77.23-1.54.47-2.29a10.37 10.37 0 0 0-2.8 6.77 40.47 40.47 0 0 0 2.54-1.23 10.62 10.62 0 0 1-.2-3.24zm.53.05a10.17 10.17 0 0 0 .16 2.94c3.62-1.99 7.69-5.05 7.53-8.75v-.33c-2.58.27-5 1.3-6.88 2.95a10.29 10.29 0 0 0-.8 3.19z"/></symbol><symbol id="icon-Logo-5" viewBox="0 0 57 32"><path d="M28.5 14.62a1.58 1.58 0 0 1-.33-1.06v-1.54c0-.47.1-.83.32-1.08s.58-.36 1.1-.36c.5 0 .84.1 1.05.31.22.27.33.6.3.92v.36h-.87v-.36c0-.12 0-.24-.03-.36a.35.35 0 0 0-.12-.21.5.5 0 0 0-.32-.09.53.53 0 0 0-.33.09.41.41 0 0 0-.15.24 1.74 1.74 0 0 0-.03.38v1.86c-.01.18.02.36.11.53.05.05.1.1.18.12s.15.04.22.03a.48.48 0 0 0 .31-.08.38.38 0 0 0 .13-.23c.02-.12.03-.25.03-.37v-.38h.87v.34c.03.35-.08.69-.3.97-.2.23-.54.34-1.05.34s-.88-.12-1.1-.37zm3.64.01c-.22-.24-.34-.59-.34-1.05v-1.61c0-.46.11-.8.34-1.04s.59-.35 1.1-.35c.52 0 .89.12 1.1.35.23.23.34.58.34 1.04v1.61c0 .46-.11.81-.33 1.05s-.6.36-1.1.36c-.51 0-.9-.12-1.11-.36zm1.51-.39a.9.9 0 0 0 .1-.47v-1.98a.88.88 0 0 0-.1-.47c-.04-.06-.1-.1-.17-.13s-.16-.04-.23-.03c-.08 0-.16 0-.24.03s-.13.07-.18.13a.85.85 0 0 0-.1.47v1.99a.89.89 0 0 0 .1.48c.06.05.12.09.19.12a.61.61 0 0 0 .63-.12v-.01zm2.09-3.61h.94l.7 2.98.73-2.98h.92l.09 4.3h-.68l-.07-2.99-.7 3h-.54l-.73-3.01-.07 3h-.68l.08-4.3zm4.44 0h1.46c.85 0 1.27.4 1.27 1.22 0 .78-.44 1.17-1.33 1.17h-.5v1.91h-.9v-4.3zm1.25 1.84a.7.7 0 0 0 .5-.14.7.7 0 0 0 .13-.49 1.33 1.33 0 0 0-.05-.39c0-.04-.03-.08-.06-.11l-.12-.1a.94.94 0 0 0-.4-.06h-.35v1.29h.35zm2.79-1.84h.97l1 4.3h-.84l-.2-.99h-.87l-.2 1h-.86l1-4.31zm.83 2.81-.34-1.8-.34 1.8h.68zM47 10.63h.63l1.21 2.45v-2.45h.76v4.3H49l-1.23-2.56v2.56H47v-4.3zm4.36 2.66-1.01-2.66h.85l.61 1.71.58-1.7h.83l-1 2.65v1.64h-.86V13.3zm-21.47 3.53v.22h-.74v1.75h-.3v-1.75h-.75v-.22h1.8zm2.32 1.97h-.24a.1.1 0 0 1-.07-.02.1.1 0 0 1-.04-.04l-.21-.47h-1.03l-.21.47a.12.12 0 0 1-.03.05.11.11 0 0 1-.07.02h-.24l.9-1.98h.32l.92 1.97zm-1.5-.73h.85l-.36-.8a1.43 1.43 0 0 1-.06-.2 4.03 4.03 0 0 0-.04.11l-.03.09-.36.8zm3.06.54a1.02 1.02 0 0 0 .32-.02.96.96 0 0 0 .13-.04l.12-.05v-.44h-.39l-.02-.02-.02-.01V17.85h.7v.75a1.4 1.4 0 0 1-.6.2 2.6 2.6 0 0 1-.27.02 1.41 1.41 0 0 1-.46-.08 1.1 1.1 0 0 1-.36-.2.96.96 0 0 1-.24-.32.99.99 0 0 1-.08-.4.9.9 0 0 1 .32-.73c.1-.1.22-.16.36-.2a1.56 1.56 0 0 1 .74-.06 1.21 1.21 0 0 1 .4.12l.15.1-.08.13-.03.03h-.04a.12.12 0 0 1-.06-.01 1.34 1.34 0 0 1-.09-.05.73.73 0 0 0-.12-.05 1.17 1.17 0 0 0-.17-.04 1.36 1.36 0 0 0-.23-.02 1.06 1.06 0 0 0-.35.05.7.7 0 0 0-.43.4.92.92 0 0 0 0 .67.76.76 0 0 0 .44.4c.12.03.24.05.36.04zm2.89-.03h.99v.22h-1.3v-1.97h.32l-.01 1.75zm2.02.22h-.31v-1.97h.3v1.97zm1.15-1.96a.15.15 0 0 1 .05.03l1.32 1.5a.41.41 0 0 1 0-.08v-1.47h.27v1.98h-.16a.14.14 0 0 1-.06 0 .18.18 0 0 1-.05-.05l-1.32-1.48v1.53h-.26v-1.97H39.83zm3.92-.01v.21h-1.1v.66h.9v.2h-.9v.68h1.1v.22h-1.41v-1.97h1.41zM11.3 4.62l13.75 3.37V19.8L11.3 16.43V4.62zM10.4 3.6V17l15.52 3.8V7.42L10.4 3.62z"/><path d="M18.72 27.04 3.2 23.23V9.83l15.52 3.8v13.4z"/><path d="M10.66 4.46 24.24 7.8l-5.78 5L4.88 9.44l5.78-4.99zm-.26-.85L3.2 9.83l15.52 3.8 7.2-6.21L10.4 3.6zm9.2 22.67 6.32-5.46-6.33-1.56v7.02z"/></symbol><symbol id="icon-Logo" viewBox="0 0 57 32"><path d="M20.27 3.73 24 7.27h-6.93v17.16H35.2v-6.56l3.73 3.53V3.73H20.27zm14.77 13.72L24.44 7.42h10.6v10.04zm-3.3 4.47h-11.8V10.38h.83v10.76h10.98v.78zm-9.01 4.8h.36l-.64 1.2v.7h-.33v-.7l-.63-1.2h.36l.44.9.43-.9zm.54 1.9.16-.45h.73l.16.44h.34l-.72-1.9h-.3l-.7 1.9h.33zm.52-1.5.28.79h-.55l.28-.79zm1.74.74a1.12 1.12 0 0 1 .28-.26c-.07-.1-.12-.17-.15-.24s-.04-.12-.04-.18c0-.15.04-.27.13-.36s.21-.13.37-.13c.13 0 .25.04.34.13s.13.18.13.3c0 .07-.02.15-.06.21s-.1.14-.2.2l-.13.1.37.43a.76.76 0 0 0 .08-.35h.27a.95.95 0 0 1-.16.58l.28.32h-.37l-.1-.12c-.14.1-.3.15-.5.15s-.33-.05-.44-.15a.5.5 0 0 1-.1-.63zm.86.42-.42-.49-.04.03c-.1.08-.15.17-.15.27s.02.16.08.22.13.08.23.08a.48.48 0 0 0 .3-.1zm-.34-.84.14-.1.04-.03a.23.23 0 0 0 .08-.18c0-.05-.02-.1-.05-.13s-.09-.05-.15-.05-.1.02-.14.06-.06.1-.06.16c0 .07.05.16.14.27zm3.08 1.03a.76.76 0 0 1-.52.17.7.7 0 0 1-.66-.41 1.1 1.1 0 0 1-.1-.46v-.18c0-.18.03-.33.1-.47a.71.71 0 0 1 .68-.43c.2 0 .37.06.5.17s.2.28.22.49h-.32c-.02-.14-.06-.24-.12-.3s-.16-.09-.28-.09c-.15 0-.26.05-.33.16s-.12.26-.12.46v.17c0 .2.03.36.1.47s.19.16.33.16c.13 0 .23-.03.3-.1s.1-.15.12-.28h.32a.69.69 0 0 1-.22.47zm1.94-.26a.73.73 0 0 1-.69.43.72.72 0 0 1-.69-.43 1.14 1.14 0 0 1-.1-.48v-.11c0-.18.04-.35.1-.49a.73.73 0 0 1 .69-.44.72.72 0 0 1 .69.44c.06.13.1.3.1.48v.1c0 .2-.04.36-.1.5zm-.35-1.07a.39.39 0 0 0-.34-.17c-.14 0-.25.05-.34.17s-.12.26-.12.47v.1c0 .22.04.38.12.49s.2.17.34.17c.15 0 .26-.05.34-.17s.12-.27.12-.48v-.1a.82.82 0 0 0-.12-.48z"/></symbol><symbol id="icon-smartphone" viewBox="0 0 20 32"><path d="M17 0H3a3 3 0 0 0-3 3v26a3 3 0 0 0 3 3h14a3 3 0 0 0 3-3V3a3 3 0 0 0-3-3zM3 2h14a1 1 0 0 1 1 1v21H2V3a1 1 0 0 1 1-1zm14 28H3a1 1 0 0 1-1-1v-3h16v3a1 1 0 0 1-1 1z"/><path d="M4.7 27.48c.4.36.4.95 0 1.32s-1.02.36-1.4 0c-.4-.37-.4-.96 0-1.32s1.02-.37 1.4 0z"/></symbol><symbol id="icon-twitter" viewBox="0 0 32 32"><path d="M32 6.08c-1.19.52-2.46.87-3.78 1.03a6.52 6.52 0 0 0 2.89-3.62 13.11 13.11 0 0 1-4.16 1.59A6.57 6.57 0 0 0 22.15 3a6.56 6.56 0 0 0-6.4 8.06A18.57 18.57 0 0 1 2.23 4.2a6.6 6.6 0 0 0-.9 3.31 6.57 6.57 0 0 0 2.91 5.45 6.48 6.48 0 0 1-2.96-.8v.07a6.59 6.59 0 0 0 5.26 6.44 6.55 6.55 0 0 1-1.72.22 5.8 5.8 0 0 1-1.25-.11 6.62 6.62 0 0 0 6.13 4.57 13.18 13.18 0 0 1-8.13 2.8c-.54 0-1.05-.03-1.57-.1A18.47 18.47 0 0 0 10.06 29c12.08 0 18.68-10 18.68-18.67 0-.29-.01-.57-.03-.85A13.09 13.09 0 0 0 32 6.08z"/></symbol></defs></svg>